{"title":"Eye.for.Eye.2008.SWESUB.DVDRip.XviD.-Zen_Bud","uid":5777963,"size":739874816,"categoryP":"video","categoryS":"movies","magnet":"?xt=urn:btih:6144c81f7b75f770ee407011d5d163f3b7b5d266&amp;dn=Eye.for.Eye.2008.SWESUB.DVDRip.XviD.-Zen_Bud&amp;tr=udp%3A%2F%2Ftracker.openbittorrent.com%3A80&amp;tr=udp%3A%2F%2Fopen.demonii.com%3A1337&amp;tr=udp%3A%2F%2Ftracker.coppersurfer.tk%3A6969&amp;tr=udp%3A%2F%2Fexodus.desync.com%3A6969","seeders":0,"leechers":0,"uploader":"Zen_Bud","files":1,"time":1282322695,"description":"\nComplete name               : Eye.for.Eye.2008.SWESUB.DVDRip.XviD.-Zen_Bud.avi\nFormat                           : AVI\nFile size                        : 706 MiB\nDuration                         : 1h 19mn\nOverall bit rate                 : 1 237 Kbps\n\n\nVideo\n\nFormat                           : MPEG-4 Visual\nCodec ID/Hint                    : XviD\nDuration                         : 1h 19mn\nBit rate                         : 1 100 Kbps\nWidth                            : 720 pixels\nHeight                           : 576 pixels\nDisplay aspect ratio             : 5:4\nStream size                      : 627 MiB (89%)\nWriting library                  : XviD 1.2.1 (UTC 2008-12-04)\n\nAudio\n\nFormat                           : MPEG Audio\nCodec ID/Hint                    : MP3\nDuration                         : 1h 19mn\nBit rate                         : 128 Kbps\nChannel(s)                       : 2 channels\nSampling rate                    : 44.1 KHz\nStream size                      : 73.0 MiB (10%)\nWriting library                  : LAME3.98.2\n\n","torrent":{"xt":"urn:btih:6144c81f7b75f770ee407011d5d163f3b7b5d266","amp;dn":"Eye.for.Eye.2008.SWESUB.DVDRip.XviD.-Zen_Bud","amp;tr":["udp%3A%2F%2Ftracker.openbittorrent.com%3A80","udp%3A%2F%2Fopen.demonii.com%3A1337","udp%3A%2F%2Ftracker.coppersurfer.tk%3A6969","udp%3A%2F%2Fexodus.desync.com%3A6969"],"infoHash":"6144c81f7b75f770ee407011d5d163f3b7b5d266","infoHashBuffer":{"type":"Buffer","data":[97,68,200,31,123,117,247,112,238,64,112,17,213,209,99,243,183,181,210,102]},"announce":[],"urlList":[]}}